<svg width="24" height="24" viewBox="0 0 24 24" fill="none" xmlns="http://www.w3.org/2000/svg">
<circle cx="12" cy="12" r="9" fill="#FAFAFA"/>
<path d="M14.854 14.1468C14.9506 14.2396 15.005 14.368 15.0069 14.5021C15.0078 14.6362 14.9553 14.7646 14.8597 14.8593C14.765 14.954 14.6365 15.0074 14.5025 15.0065C14.3684 15.0046 14.24 14.9502 14.1472 14.8537L12.0003 12.7068L9.85341 14.8537C9.65747 15.043 9.34622 15.0402 9.15309 14.8471C8.95996 14.6549 8.95715 14.3427 9.14653 14.1468L11.2934 11.9999L9.14653 9.85304C8.95715 9.6571 8.95996 9.34585 9.15309 9.15272C9.34528 8.9596 9.65747 8.95678 9.85341 9.14616L12.0003 11.293L14.1472 9.14616C14.3431 8.95679 14.6543 8.9596 14.8475 9.15272C15.0406 9.34491 15.0434 9.65711 14.854 9.85304L12.7072 11.9999L14.854 14.1468Z" fill="#767676"/>
</svg>
