<svg width="24" height="24" viewBox="0 0 24 24" fill="none" xmlns="http://www.w3.org/2000/svg">
<path fill-rule="evenodd" clip-rule="evenodd" d="M9.00017 16.0003C10.1046 16.0003 10.9998 16.8956 10.9998 18C10.9998 19.1043 10.1045 19.9997 9.00017 19.9997C7.89581 19.9997 7.00049 19.1043 7.00049 18C7.00049 16.8956 7.89581 16.0003 9.00017 16.0003ZM15.0002 16.0003C16.1046 16.0003 16.9998 16.8956 16.9998 18C16.9998 19.1043 16.1045 19.9997 15.0002 19.9997C13.8958 19.9997 13.0005 19.1043 13.0005 18C13.0005 16.8956 13.8958 16.0003 15.0002 16.0003ZM9.00017 10.0003C10.1046 10.0003 10.9998 10.8956 10.9998 12C10.9998 13.1043 10.1045 13.9997 9.00017 13.9997C7.89581 13.9997 7.00049 13.1043 7.00049 12C7.00049 10.8956 7.89581 10.0003 9.00017 10.0003ZM15.0002 10.0003C16.1046 10.0003 16.9998 10.8956 16.9998 12C16.9998 13.1043 16.1045 13.9997 15.0002 13.9997C13.8958 13.9997 13.0005 13.1043 13.0005 12C13.0005 10.8956 13.8958 10.0003 15.0002 10.0003ZM9.00017 4.00031C10.1046 4.00031 10.9998 4.89563 10.9998 5.99999C10.9998 7.10435 10.1045 7.99967 9.00017 7.99967C7.89581 7.99967 7.00049 7.10435 7.00049 5.99999C7.00049 4.89563 7.89581 4.00031 9.00017 4.00031ZM15.0002 4.00031C16.1046 4.00031 16.9998 4.89563 16.9998 5.99999C16.9998 7.10435 16.1045 7.99967 15.0002 7.99967C13.8958 7.99967 13.0005 7.10435 13.0005 5.99999C13.0005 4.89563 13.8958 4.00031 15.0002 4.00031Z" fill="#767676"/>
</svg>
